<?xml version="1.0" standalone="no"?>
<!DOCTYPE svg PUBLIC "-//W3C//DTD SVG 20010904//EN"
 "http://www.w3.org/TR/2001/REC-SVG-20010904/DTD/svg10.dtd">
<svg version="1.0" xmlns="http://www.w3.org/2000/svg"
 width="500.000000pt" height="500.000000pt" viewBox="0 0 500.000000 500.000000"
 preserveAspectRatio="xMidYMid meet">
<metadata>
Created by potrace 1.11, written by Peter Selinger 2001-2013
</metadata>
<g transform="translate(0.000000,500.000000) scale(0.100000,-0.100000)"
fill="#000000" stroke="none">
<path d="M1263 4994 c-6 -3 -28 -21 -48 -40 -20 -19 -41 -34 -46 -34 -5 0 -9
-7 -9 -15 0 -8 -3 -15 -7 -15 -5 0 -22 -18 -40 -38 -21 -26 -28 -43 -23 -52 7
-11 11 -11 24 -1 9 8 16 10 16 6 0 -4 7 -2 15 5 12 10 15 10 15 -3 0 -8 -6
-17 -12 -19 -9 -3 -8 -9 4 -21 20 -21 29 -22 22 -3 -6 16 24 56 43 56 7 0 10
7 7 15 -5 11 1 15 19 15 18 0 31 10 46 33 17 28 25 33 56 32 33 -2 36 1 31 21
-4 14 -1 22 7 21 30 -1 43 4 55 23 12 19 10 20 -75 19 -49 0 -93 -3 -100 -5z"/>
<path d="M2390 4993 c0 -6 5 -15 10 -18 6 -4 7 -11 3 -18 -3 -6 -6 -30 -4 -53
1 -23 -3 -45 -9 -49 -6 -3 -8 -10 -5 -15 3 -5 1 -11 -5 -15 -14 -9 -13 -92 2
-101 6 -4 14 -2 16 4 2 7 11 4 25 -9 19 -17 20 -21 7 -29 -13 -8 -12 -10 2
-10 10 0 23 -9 30 -19 9 -15 15 -17 25 -9 10 8 13 7 13 -5 0 -8 7 -17 15 -21
8 -3 14 -11 13 -18 -2 -7 3 -12 10 -10 6 1 12 -5 12 -13 0 -17 79 -105 93
-105 5 0 20 -13 34 -30 13 -16 31 -30 39 -30 23 0 81 -33 67 -37 -7 -3 -13 -9
-13 -14 0 -6 5 -7 10 -4 6 3 10 1 10 -4 0 -6 -4 -11 -9 -11 -5 0 -12 -8 -14
-17 -4 -17 -5 -17 -6 0 -1 18 -21 24 -21 6 0 -7 -10 -9 -25 -5 -14 4 -25 3
-25 -2 0 -5 -12 -8 -27 -6 -200 20 -344 23 -448 10 -22 -3 -43 -5 -46 -5 -4
-1 -9 -12 -12 -26 -2 -14 -2 -23 1 -21 2 3 13 1 23 -5 11 -5 19 -6 19 -1 0 5
7 9 15 9 8 0 15 -4 15 -8 0 -5 7 -6 15 -2 10 3 25 -5 39 -22 17 -20 25 -24 29
-14 4 12 7 11 16 -1 9 -13 12 -13 20 -1 5 8 16 11 26 7 13 -4 16 -2 11 9 -4
12 -2 13 14 2 11 -6 20 -16 20 -21 0 -4 6 -3 14 3 10 9 16 8 26 -4 7 -9 19
-14 27 -11 22 9 73 -5 73 -20 0 -10 -14 -14 -45 -15 -25 -1 -49 -3 -55 -4 -5
-1 -17 -3 -25 -4 -8 0 -15 -8 -15 -16 0 -9 -6 -12 -17 -8 -11 4 -12 8 -5 11
17 5 15 22 -3 22 -8 0 -15 -7 -15 -15 0 -8 -7 -15 -16 -15 -8 0 -13 4 -9 9 3
5 1 12 -5 16 -6 3 -14 -4 -19 -17 -8 -20 -10 -21 -16 -5 -9 21 -25 23 -25 2 0
-9 -6 -12 -15 -9 -8 4 -12 10 -9 15 3 5 -2 9 -11 9 -9 0 -13 -4 -10 -10 3 -5
-1 -10 -9 -10 -9 0 -16 5 -16 11 0 6 -13 1 -29 -10 -16 -12 -34 -21 -40 -21
-6 0 -11 -4 -11 -10 0 -14 -111 -12 -143 3 -29 13 -34 26 -15 45 9 9 9 12 0
12 -7 0 -12 14 -12 35 0 19 5 35 10 35 6 0 10 6 10 14 0 12 41 28 80 31 8 0
20 4 27 8 6 4 14 3 18 -3 9 -15 22 -12 29 5 5 13 -7 14 -84 10 -55 -3 -90 -1
-90 5 0 6 -7 10 -16 10 -8 0 -13 4 -10 9 6 10 -51 8 -61 -3 -11 -10 -23 -7
-23 7 0 7 6 19 13 26 6 6 12 20 13 29 0 9 4 26 8 37 19 49 36 96 36 98 0 2
-63 0 -70 -3 -22 -8 -103 -9 -117 -1 -14 8 -15 11 -3 11 10 1 9 4 -5 10 -17 7
-17 9 -3 9 10 1 24 14 33 30 15 30 47 47 65 36 5 -3 10 2 10 12 0 14 -8 19
-35 21 -19 2 -35 -2 -35 -8 0 -5 -9 -10 -20 -10 -13 0 -20 -7 -20 -19 0 -19
-37 -36 -70 -33 -9 1 -10 -1 -3 -4 17 -7 4 -34 -13 -27 -8 3 -14 0 -14 -6 0
-6 5 -11 10 -11 6 0 10 -4 10 -10 0 -5 -9 -10 -20 -10 -48 0 -283 -78 -340
-113 -68 -41 -120 -100 -124 -139 -2 -19 -6 -40 -10 -46 -3 -6 0 -13 6 -15 10
-4 10 -6 1 -6 -7 -1 -13 -6 -13 -11 0 -16 -61 -80 -77 -80 -7 0 -13 -7 -13
-15 0 -9 -12 -18 -30 -21 -16 -4 -27 -10 -25 -15 3 -4 1 -10 -5 -14 -5 -3 -10
1 -10 11 0 11 -6 15 -20 11 -37 -10 -67 14 -73 58 -4 28 -14 47 -34 62 -15 13
-22 23 -15 23 9 0 11 7 7 21 -5 16 -4 19 5 14 7 -4 16 -1 21 6 6 9 9 1 9 -26
1 -38 1 -39 16 -20 21 28 14 129 -10 133 -12 3 -14 10 -10 30 5 22 4 25 -7 15
-20 -20 -27 -16 -22 15 l4 27 -14 -25 c-8 -14 -18 -43 -22 -65 -3 -21 -15 -51
-26 -66 -10 -15 -25 -51 -33 -80 -8 -30 -21 -74 -30 -99 -9 -25 -16 -56 -16
-70 0 -31 -29 -110 -49 -134 -9 -10 -15 -20 -13 -22 1 -2 -1 -4 -4 -3 -4 0
-10 -3 -13 -8 -3 -5 -23 -17 -43 -26 -79 -37 -204 -150 -213 -192 -2 -11 -9
-44 -15 -73 -21 -92 15 -322 50 -322 6 0 8 -4 5 -10 -6 -9 30 -68 50 -82 5 -4
13 -2 17 5 5 7 8 2 8 -14 0 -21 11 -34 47 -57 27 -17 69 -37 96 -43 26 -7 47
-17 47 -21 0 -4 -20 -44 -44 -88 -25 -44 -50 -104 -56 -134 -12 -60 -12 -60
-12 -161 0 -38 0 -82 0 -96 -1 -14 10 -50 24 -80 14 -30 31 -81 38 -114 11
-55 35 -112 52 -125 9 -7 6 -50 -3 -50 -3 0 -6 -12 -6 -27 0 -46 -31 -164 -47
-182 -9 -10 -16 -25 -16 -35 0 -10 -5 -14 -11 -10 -14 8 -29 -14 -29 -42 0
-13 -8 -24 -19 -27 -21 -5 -38 -79 -27 -115 5 -14 -4 -34 -29 -66 -19 -25 -35
-50 -35 -54 0 -4 -16 -25 -35 -47 -19 -22 -40 -55 -47 -72 -7 -18 -16 -33 -20
-33 -5 0 -6 -10 -3 -23 4 -15 1 -28 -9 -36 -17 -14 -22 -56 -7 -65 13 -8 20
-56 9 -62 -5 -3 -5 -11 1 -18 6 -7 8 -16 4 -19 -3 -4 -1 -13 5 -20 7 -8 9 -16
6 -20 -3 -3 4 -11 16 -17 17 -9 20 -17 15 -37 -3 -15 -2 -22 4 -18 10 6 44
-10 69 -33 7 -6 19 -12 25 -12 8 0 7 -4 -1 -12 -19 -19 -14 -27 15 -25 33 2
45 -28 15 -37 -15 -5 -18 -14 -15 -43 2 -23 -1 -39 -9 -44 -10 -7 -10 -9 0 -9
7 0 12 -15 12 -40 0 -22 -4 -40 -10 -40 -24 0 -7 -29 20 -35 20 -4 30 -13 30
-24 0 -33 31 -50 82 -44 26 3 45 9 42 14 -11 18 12 8 34 -15 12 -13 45 -30 72
-37 27 -7 47 -16 44 -20 -2 -4 11 -7 30 -6 19 1 32 5 29 10 -2 4 3 7 12 7 11
0 15 -5 11 -15 -3 -8 -1 -15 4 -15 6 0 10 -6 10 -14 0 -20 19 -25 75 -15 30 4
75 3 112 -3 58 -11 62 -13 79 -51 14 -30 15 -42 6 -45 -6 -2 -12 -13 -12 -23
0 -11 -7 -33 -16 -50 -8 -16 -13 -40 -10 -52 3 -12 3 -16 0 -9 -10 22 -26 13
-22 -12 3 -15 0 -27 -8 -30 -8 -3 -14 -12 -14 -20 0 -8 -16 -49 -35 -92 -19
-42 -35 -83 -35 -91 0 -18 -31 -116 -39 -123 -3 -3 -7 -11 -8 -17 -2 -10 56
-13 263 -13 227 0 265 2 261 14 -4 10 4 18 21 25 21 7 22 10 8 10 -16 1 -17 4
-8 13 7 7 12 20 12 29 0 10 6 20 13 22 7 3 5 6 -5 6 -22 1 -22 2 -3 37 9 18
11 32 5 39 -6 7 -4 19 6 33 8 12 12 26 9 32 -3 5 3 18 15 30 23 23 27 45 5 36
-17 -6 -21 9 -5 19 6 4 8 11 5 16 -4 5 1 9 10 9 11 0 15 6 11 18 -6 18 26 62
44 62 6 0 10 7 10 15 0 8 9 24 20 35 11 11 20 27 20 35 0 8 4 15 9 15 5 0 11
10 13 23 2 12 10 23 18 23 8 1 21 2 29 3 8 1 11 8 8 22 -4 16 -2 19 11 13 9
-4 31 -8 49 -8 51 -2 51 -16 0 -16 -26 0 -47 -4 -47 -10 0 -5 9 -10 20 -10 20
0 20 -1 5 -31 -15 -29 -15 -32 1 -50 20 -22 39 -25 31 -6 -4 10 3 12 23 9 18
-3 30 -12 34 -26 6 -20 7 -20 20 -3 7 9 19 17 25 17 7 0 23 11 37 25 27 27 64
33 64 11 0 -8 -4 -17 -9 -20 -5 -3 -12 -18 -15 -32 -4 -15 -14 -33 -21 -41 -8
-8 -15 -23 -15 -34 0 -12 -5 -17 -10 -14 -6 4 -8 16 -4 27 4 15 2 19 -7 16 -8
-3 -15 -16 -16 -29 0 -13 -1 -32 -2 -42 -1 -14 -7 -17 -23 -13 l-23 6 22 -11
c24 -13 58 -5 48 11 -3 5 1 10 9 10 9 0 16 5 16 11 0 5 5 7 11 4 6 -5 4 -12
-8 -21 -10 -7 -13 -14 -8 -14 6 0 4 -4 -3 -9 -17 -10 -5 -61 15 -61 8 0 11 -4
8 -10 -3 -5 -15 -10 -26 -10 -24 0 -24 -12 1 -35 11 -10 20 -13 20 -7 0 6 -5
12 -12 14 -9 3 -9 6 0 12 7 4 16 -3 24 -19 12 -27 34 -29 32 -1 -2 17 11 22
21 6 3 -5 19 -8 34 -7 16 1 27 5 24 9 -2 5 3 8 11 8 9 0 16 7 16 15 0 8 5 15
10 15 6 0 10 6 10 14 0 22 42 49 51 34 5 -8 10 -2 14 15 4 15 11 27 17 27 16
0 56 37 178 168 113 121 150 162 150 171 0 5 16 26 36 47 20 22 47 52 60 67
13 16 28 25 34 22 5 -3 10 1 10 9 0 9 5 16 10 16 6 0 10 7 10 15 0 9 7 18 15
21 8 4 15 12 15 20 0 8 7 14 15 14 8 0 15 7 15 15 0 8 5 15 10 15 6 0 10 7 10
15 0 9 12 18 30 22 24 4 29 10 25 24 -5 14 -1 19 10 19 13 0 16 6 12 20 -4 17
-2 20 13 15 10 -3 21 -1 25 5 3 5 1 10 -4 10 -6 0 -11 4 -11 9 0 15 54 10 74
-8 15 -12 17 -13 11 -1 -5 8 -11 23 -12 33 -2 14 1 17 17 12 14 -4 28 3 49 24
17 17 35 31 41 31 5 0 10 7 10 15 0 8 6 15 13 15 8 0 8 3 2 8 -6 4 -8 20 -4
37 4 17 7 22 8 13 1 -22 17 -23 37 -3 9 8 24 15 35 15 19 0 22 21 6 48 -6 9 1
12 27 12 26 0 36 4 36 16 0 23 26 45 44 38 12 -5 15 -2 10 10 -4 11 -1 16 11
16 12 0 16 6 12 20 -3 12 0 20 7 20 7 0 19 12 27 27 19 36 92 113 107 113 6 0
12 5 12 10 0 6 11 21 24 33 14 12 33 30 43 39 10 9 38 40 63 68 25 29 64 72
87 96 29 30 37 44 26 44 -23 0 -12 9 18 14 13 2 23 9 21 15 -1 6 5 14 13 17 8
4 15 12 15 20 0 8 7 14 15 14 9 0 12 6 9 15 -4 9 0 15 9 15 9 0 21 8 26 18 6
9 11 14 11 10 0 -5 9 1 20 12 12 12 18 25 15 30 -4 6 1 10 10 10 11 0 15 5 12
14 -3 8 1 17 9 20 8 3 14 12 14 21 0 8 5 15 10 15 6 0 10 5 10 11 0 6 -8 8
-19 4 -11 -3 -22 -1 -26 5 -4 6 7 10 29 10 19 0 38 5 41 10 4 6 -5 10 -19 10
-14 0 -26 5 -26 11 0 5 3 8 8 6 4 -3 8 10 9 29 3 28 -1 34 -16 34 -13 0 -18 6
-17 18 2 10 11 17 25 16 11 -1 21 4 21 10 0 6 5 4 10 -4 9 -13 12 -12 25 5 8
11 20 26 27 34 10 12 6 13 -28 8 -21 -4 -72 -9 -111 -13 -40 -4 -73 -11 -73
-15 0 -5 -7 -6 -15 -3 -45 18 -121 -29 -97 -59 29 -35 25 -197 -4 -197 -8 0
-13 -4 -10 -8 3 -5 -23 -38 -57 -73 -34 -35 -60 -68 -59 -72 1 -4 -5 -10 -14
-14 -14 -5 -13 -8 7 -20 22 -13 22 -13 2 -8 -22 6 -26 3 -64 -48 -12 -16 -27
-26 -33 -24 -7 3 -23 -4 -37 -14 -13 -10 -21 -19 -16 -19 4 0 -11 -16 -33 -37
-23 -20 -39 -42 -36 -50 3 -8 -2 -13 -14 -13 -11 0 -20 -7 -20 -14 0 -8 -11
-27 -25 -42 -14 -15 -25 -30 -25 -33 0 -3 -22 -17 -50 -30 -30 -14 -50 -30
-50 -40 0 -23 -29 -63 -41 -56 -5 3 -6 -1 -3 -9 6 -16 3 -17 -48 -20 -25 -2
-34 -16 -10 -16 12 0 22 -5 22 -11 0 -6 -7 -8 -16 -5 -9 3 -22 6 -30 6 -9 0
-12 4 -9 10 3 6 -1 7 -9 4 -9 -3 -16 -1 -16 6 0 12 46 99 60 114 5 5 6 15 3
23 -3 9 -8 11 -12 5 -8 -13 -61 -3 -61 10 0 6 6 8 14 5 8 -3 20 1 26 9 9 10 9
14 1 14 -6 0 -11 11 -11 25 0 16 6 25 16 25 8 0 12 5 9 10 -12 19 -40 10 -79
-25 -22 -19 -46 -35 -53 -35 -7 0 -13 -4 -13 -10 0 -5 -4 -10 -9 -10 -5 0 -22
-5 -38 -12 -15 -6 -34 -10 -41 -9 -10 2 -12 -4 -7 -21 6 -19 5 -21 -6 -10 -19
18 -27 15 -32 -10 l-4 -23 -8 23 c-7 20 -9 21 -20 6 -6 -10 -17 -14 -23 -10
-18 11 -14 36 4 36 14 0 14 3 4 15 -7 8 -11 16 -9 16 2 1 16 3 31 4 33 4 80
34 72 46 -3 5 1 9 10 9 8 0 17 -6 20 -12 3 -7 3 -1 -1 15 -6 31 11 57 38 57
11 0 19 7 19 16 0 8 5 12 10 9 6 -3 10 3 10 14 0 12 7 21 15 21 8 0 15 -5 15
-10 0 -6 9 -1 20 10 25 25 26 34 0 18 -10 -7 -23 -9 -27 -5 -4 5 -1 12 7 17
13 8 12 13 -3 40 -19 31 -19 31 7 55 16 14 23 30 20 39 -3 9 -2 16 4 16 5 0 9
8 8 18 0 10 5 16 13 14 9 -2 11 3 7 13 -3 9 -6 23 -6 31 0 8 -7 14 -15 14 -8
0 -15 5 -15 10 0 6 19 10 43 10 46 0 67 10 70 31 2 8 6 20 11 27 4 7 6 14 5
15 -33 17 -44 26 -44 35 0 6 -6 17 -13 24 -11 11 -12 10 -6 -5 5 -13 2 -16
-10 -11 -9 4 -14 9 -12 12 3 3 -2 11 -11 17 -15 11 -15 15 -4 29 7 9 10 16 6
16 -21 0 22 30 51 36 19 3 39 15 44 25 6 10 26 23 45 30 19 7 35 19 35 26 0 8
7 16 15 19 8 4 15 13 15 21 0 10 6 13 16 9 13 -5 15 -2 11 14 -3 11 3 44 13
73 21 63 32 127 21 127 -5 0 -8 43 -7 95 0 52 -2 95 -6 95 -4 0 -7 11 -6 24 1
15 7 22 15 19 7 -3 13 -9 13 -14 0 -5 4 -9 10 -9 5 0 6 7 3 17 -4 9 -2 14 3
10 14 -8 11 64 -4 88 -6 11 -12 14 -12 8 0 -7 -5 -13 -11 -13 -6 0 -9 7 -5 15
3 8 -6 27 -19 41 -14 15 -25 33 -25 40 0 7 -5 14 -11 16 -9 3 -9 10 0 27 7 12
10 30 7 38 -4 9 1 24 10 34 14 16 18 16 31 4 18 -18 43 -19 44 -2 4 80 31 142
57 132 33 -13 104 -23 124 -17 14 3 19 1 14 -6 -4 -7 -4 -17 0 -23 4 -7 12 1
20 21 8 18 11 36 8 41 -3 5 1 12 10 15 8 3 13 11 10 17 -2 7 -6 37 -8 67 -3
30 -5 57 -6 60 -1 3 -2 9 -1 13 1 4 -4 14 -11 22 -33 36 -39 46 -34 54 10 15
-45 61 -86 72 -28 7 -38 14 -34 25 3 8 0 14 -7 14 -7 0 -4 5 6 11 15 9 16 13
5 27 -14 17 -16 17 36 -4 14 -5 17 -4 12 4 -5 8 0 12 13 12 12 0 21 -5 21 -11
0 -6 8 -8 18 -5 15 5 21 -3 32 -44 10 -36 19 -50 31 -50 10 0 21 -4 24 -10 3
-5 1 -10 -6 -10 -7 0 -5 -6 6 -13 10 -8 15 -19 11 -25 -4 -7 -3 -12 2 -12 16
0 35 -54 39 -110 4 -59 18 -86 29 -54 3 10 11 29 16 41 7 15 9 66 4 150 -4 70
-8 144 -9 163 -2 31 1 35 26 38 24 3 30 -2 48 -45 12 -26 23 -75 26 -109 7
-79 -31 -320 -61 -388 -21 -48 -47 -145 -61 -228 -5 -30 -3 -38 10 -38 19 0
20 -19 0 -26 -14 -6 -13 -8 2 -20 16 -13 16 -15 3 -26 -9 -7 -24 -34 -34 -60
-10 -26 -22 -50 -27 -54 -6 -3 -5 -12 3 -22 12 -14 10 -14 -9 -3 -21 11 -23
10 -23 -14 0 -14 4 -25 9 -25 6 0 9 -20 7 -45 -3 -50 -1 -52 27 -28 18 17 19
17 29 -1 8 -14 12 -15 18 -5 7 10 12 10 23 0 12 -9 16 -9 20 1 4 10 7 10 15
-1 8 -11 13 -8 26 17 8 16 27 39 42 51 14 11 23 24 20 30 -9 14 43 71 65 71
10 0 19 4 19 8 0 5 11 15 24 22 20 10 26 24 32 66 3 30 10 54 15 54 5 0 6 7 3
15 -4 10 0 15 14 15 22 0 32 18 32 58 0 15 7 40 15 55 10 20 12 35 4 54 -8 21
-6 29 11 43 11 9 20 27 20 38 0 12 8 26 18 31 12 6 22 32 31 76 8 37 20 69 27
72 8 3 14 14 14 24 0 10 5 19 10 19 6 0 10 7 10 16 0 8 5 12 10 9 12 -8 29 33
23 56 -3 11 -11 15 -24 12 -20 -6 -25 6 -10 22 12 14 22 85 11 85 -5 0 -4 14
1 32 6 23 5 34 -4 40 -9 6 -9 10 3 18 8 5 10 10 5 10 -6 0 -16 9 -23 20 -10
17 -10 25 3 43 8 12 15 41 15 65 0 35 -4 45 -20 49 -16 4 -20 14 -20 44 0 22
5 39 10 39 6 0 10 5 10 11 0 5 -5 7 -11 3 -6 -3 -10 1 -9 12 1 11 1 21 0 24
-5 13 -12 47 -13 63 -1 9 -4 17 -8 17 -16 0 -15 38 0 50 12 8 16 21 13 41 -2
16 0 29 6 29 7 0 6 16 -3 48 -8 26 -15 65 -15 87 0 39 5 51 47 125 24 43 36
87 25 94 -5 3 -7 19 -4 35 3 21 -3 39 -23 65 -15 19 -30 35 -33 34 -10 -3 -67
53 -81 80 -6 12 -18 22 -26 22 -8 0 -15 6 -15 14 0 32 -47 95 -72 96 -5 0 -8
-8 -8 -17 0 -10 -7 -26 -14 -36 -12 -15 -14 -16 -20 -2 -3 9 0 15 9 15 16 0
20 12 8 23 -3 4 -13 1 -21 -6 -13 -10 -14 -9 -8 10 5 16 2 25 -13 32 -31 17
-1501 15 -1501 -1 0 -9 -4 -8 -10 2 -6 9 -10 10 -10 3z m-630 -378 c0 -8 -4
-15 -10 -15 -5 0 -10 7 -10 15 0 8 5 15 10 15 6 0 10 -7 10 -15z m-70 -86 c0
-5 -4 -9 -10 -9 -5 0 -10 7 -10 16 0 8 5 12 10 9 6 -3 10 -10 10 -16z m25
-134 c0 -22 -37 -32 -130 -36 -27 -1 -61 -6 -75 -11 -24 -8 -23 -7 5 16 17 14
35 26 40 26 6 1 37 7 70 15 74 17 90 15 90 -10z m485 -85 c0 -5 -5 -10 -11
-10 -5 0 -7 5 -4 10 3 6 8 10 11 10 2 0 4 -4 4 -10z m-509 -78 c1 -15 2 -15 6
1 6 24 20 21 48 -9 14 -15 25 -22 25 -15 0 6 5 11 10 11 6 0 10 -6 10 -13 0
-7 9 -18 19 -24 61 -38 82 -247 39 -383 -36 -114 -104 -205 -203 -271 -27 -18
-52 -33 -55 -32 -7 1 -52 -15 -72 -27 -10 -6 -26 -10 -37 -10 -11 0 -26 -6
-34 -14 -7 -8 -22 -15 -33 -16 -37 -4 -39 2 -4 14 50 18 51 42 1 56 -22 6 -43
15 -46 20 -3 6 -15 10 -26 10 -11 0 -19 7 -19 16 0 14 -3 14 -15 4 -13 -10
-15 -9 -15 9 0 11 -5 21 -10 21 -14 0 -69 62 -70 78 0 6 -5 12 -11 12 -6 0 -9
5 -7 11 2 7 -13 29 -34 50 -39 39 -56 50 -42 27 12 -19 13 -52 2 -65 -12 -15
3 -60 39 -113 27 -40 14 -70 -14 -31 -9 13 -28 36 -43 50 -38 37 -64 80 -79
128 -12 36 -11 48 5 95 10 29 22 55 25 58 3 3 9 18 13 34 8 32 80 105 141 144
22 14 42 28 45 31 19 24 180 110 230 123 148 39 209 45 211 20z m-808 -111
c10 -12 9 -13 -2 -7 -11 7 -12 1 -6 -33 8 -49 -6 -54 -23 -8 -15 43 -15 80 1
96 10 10 13 8 15 -11 2 -13 9 -29 15 -37z m1337 9 c0 -5 -7 -10 -16 -10 -8 0
-12 5 -9 10 3 6 10 10 16 10 5 0 9 -4 9 -10z m-43 -6 c-3 -3 -12 -4 -19 -1 -8
3 -5 6 6 6 11 1 17 -2 13 -5z m-37 -66 c0 -3 17 -5 38 -3 20 1 39 0 42 -4 10
-14 125 -41 128 -31 3 7 9 7 18 -1 7 -6 20 -9 29 -6 8 4 17 2 20 -3 5 -8 -32
-26 -47 -22 -5 1 -8 -2 -8 -8 0 -5 -8 -6 -17 -3 -12 5 -15 2 -10 -9 4 -12 -3
-18 -26 -23 -41 -8 -150 -6 -157 4 -10 16 -49 19 -61 5 -17 -20 -66 -18 -73 4
-10 32 2 75 25 93 23 17 99 23 99 7z m502 -152 c21 -4 44 -13 52 -21 18 -18
19 -86 1 -79 -9 4 -11 -2 -8 -20 4 -17 12 -26 25 -26 11 0 16 -5 13 -11 -4 -5
1 -19 11 -30 16 -18 16 -21 -1 -59 -10 -22 -22 -37 -27 -34 -13 8 -40 -17 -34
-33 3 -7 -1 -13 -10 -13 -12 0 -14 -7 -9 -30 4 -19 3 -30 -4 -30 -6 0 -11 -6
-11 -14 0 -7 -7 -19 -15 -26 -8 -7 -12 -16 -9 -21 3 -5 -3 -6 -12 -2 -13 5
-16 3 -11 -10 3 -9 2 -19 -3 -22 -6 -4 -10 -15 -10 -25 0 -13 -5 -17 -15 -14
-8 4 -15 1 -15 -5 0 -6 -7 -11 -15 -11 -8 0 -15 -4 -15 -10 0 -5 -7 -10 -16
-10 -14 0 -15 -7 -10 -45 6 -37 4 -46 -9 -52 -13 -4 -15 -13 -11 -34 3 -16 1
-29 -4 -29 -6 0 -10 -7 -10 -16 0 -8 5 -12 10 -9 6 3 10 2 10 -4 0 -5 3 -17 6
-26 5 -11 2 -16 -7 -15 -38 6 -44 -1 -19 -22 l25 -21 -25 6 c-20 5 -28 1 -35
-15 -11 -24 -35 -36 -35 -18 0 6 6 8 13 4 6 -4 9 -3 5 1 -5 5 -20 9 -35 11
-16 1 -22 0 -15 -3 14 -5 17 -43 3 -43 -5 0 -11 10 -15 23 l-6 22 -20 -25
c-24 -31 -27 -9 -3 27 17 25 17 26 -2 16 -36 -18 -115 -9 -142 17 -17 16 -21
26 -13 34 15 15 12 26 -5 20 -11 -4 -13 -2 -10 9 7 18 -26 29 -41 13 -13 -14
-25 -58 -14 -51 18 11 21 -17 4 -30 -13 -9 -19 -26 -19 -54 0 -46 0 -47 -21
-26 -9 8 -24 15 -35 15 -10 0 -19 6 -19 13 0 6 -9 -1 -19 -18 -11 -16 -31 -41
-45 -54 -21 -19 -26 -20 -26 -6 0 9 -5 13 -10 10 -6 -4 -8 -11 -5 -16 4 -5 -1
-9 -10 -9 -11 0 -15 -5 -12 -14 3 -8 -1 -17 -9 -20 -8 -3 -14 -12 -14 -21 0
-8 -4 -15 -10 -15 -5 0 -10 -5 -10 -11 0 -6 -7 -17 -15 -25 -8 -9 -18 -27 -22
-42 -3 -14 -17 -36 -30 -48 -26 -24 -30 -44 -8 -44 8 0 15 -6 15 -13 0 -7 9
-18 20 -25 12 -7 20 -8 20 -2 0 5 7 10 15 10 8 0 15 -5 15 -10 0 -6 -7 -13
-15 -16 -22 -9 -20 -53 3 -49 9 2 19 4 22 4 3 1 -1 5 -9 10 -12 8 -12 14 4 38
l19 28 6 -25 c4 -15 1 -30 -8 -39 -11 -11 -11 -16 0 -23 10 -7 9 -8 -4 -4 -23
7 -57 -52 -37 -65 9 -5 10 -11 2 -21 -15 -18 -19 -50 -9 -67 6 -9 5 -12 -5 -9
-8 3 -20 -1 -27 -9 -7 -7 -23 -13 -34 -13 -17 0 -18 3 -9 14 10 12 7 25 -13
63 -30 55 -32 73 -10 73 8 0 12 5 8 11 -10 16 -12 79 -2 73 13 -8 48 6 48 19
0 7 -10 18 -22 26 -20 13 -22 12 -11 -1 7 -8 11 -17 8 -20 -9 -9 -55 4 -49 14
3 5 -2 8 -12 6 -14 -2 -19 3 -19 22 0 15 -7 26 -18 28 -18 4 -24 22 -7 22 24
0 7 20 -17 21 -25 0 -26 1 -8 9 16 7 17 9 3 9 -9 1 -20 5 -23 11 -3 6 1 7 9 4
9 -3 16 -2 16 4 0 18 -27 32 -62 30 -49 -2 -113 31 -132 67 -10 20 -15 24 -15
13 -1 -19 -21 -25 -21 -7 0 8 -4 8 -14 0 -11 -9 -15 -9 -19 1 -3 10 -9 9 -24
-5 -19 -17 -21 -17 -27 -1 -6 16 -8 15 -21 -2 -8 -10 -15 -14 -15 -8 0 7 -11
9 -26 6 -19 -3 -25 -1 -20 7 4 6 0 14 -8 17 -10 4 -16 18 -16 38 0 23 9 39 37
64 21 17 41 32 45 32 5 0 8 7 8 15 0 8 5 15 10 15 6 0 10 6 10 14 0 7 14 19
30 26 17 7 30 16 30 21 0 5 7 9 15 9 8 0 15 7 15 15 0 9 7 18 16 22 8 3 13 12
10 19 -3 8 -1 14 3 14 5 0 14 14 20 31 10 28 9 30 -12 25 -18 -5 -17 -4 3 5
14 6 35 16 46 21 12 6 32 7 45 2 37 -13 68 -11 73 3 3 7 12 13 21 13 8 0 15 4
15 9 0 4 11 6 25 3 20 -3 24 -1 19 12 -4 11 -1 16 11 16 11 0 15 -5 11 -15 -3
-8 -1 -15 3 -15 5 0 11 5 13 11 2 7 43 13 102 16 98 5 98 5 91 -17 -9 -27 10
-42 42 -34 24 6 52 -29 33 -41 -18 -11 -11 -23 10 -18 11 3 20 13 20 22 0 9 9
27 20 41 11 14 20 31 20 38 0 6 3 12 8 12 4 0 7 15 8 33 1 40 7 68 19 86 5 10
4 16 -3 19 -7 2 -12 10 -12 18 0 8 -5 14 -11 14 -6 0 -8 -9 -4 -22 5 -17 4
-19 -4 -8 -6 8 -24 14 -45 13 -20 -1 -38 3 -41 7 -3 4 -15 6 -26 3 -16 -4 -20
-2 -17 8 3 8 -2 19 -9 24 -12 9 -10 15 11 34 15 14 29 20 37 15 9 -5 8 -10 -7
-16 -14 -6 -11 -7 11 -3 17 3 37 0 45 -6 13 -10 13 -10 0 -6 -11 3 -16 -2 -17
-17 0 -11 1 -15 4 -8 3 6 11 12 19 12 13 0 50 58 46 73 -2 6 30 11 51 8 4 0 7
2 7 7 0 4 18 7 41 7 22 0 43 4 46 9 3 5 1 6 -5 2 -7 -4 -12 -2 -12 3 0 6 7 11
16 11 8 0 32 18 52 39 53 56 62 68 55 75 -4 3 -2 6 4 6 6 0 9 8 7 18 -5 18 41
47 57 36 5 -3 9 2 9 11 0 9 12 18 30 21 16 4 27 10 25 15 -9 13 38 15 95 3 30
-7 72 -15 92 -18z m606 -78 c7 -7 12 -20 12 -30 0 -10 6 -21 14 -24 13 -5 20
-54 7 -54 -12 0 -6 -83 7 -87 6 -3 12 -11 12 -19 0 -17 35 -85 48 -93 14 -9
60 -111 50 -111 -5 0 -6 -6 -2 -12 5 -10 4 -10 -5 -2 -9 8 -22 9 -45 2 -28 -9
-33 -15 -34 -44 -1 -18 -12 -50 -25 -71 -13 -21 -28 -49 -32 -63 -4 -14 -14
-32 -21 -41 -8 -9 -14 -41 -15 -78 -2 -60 -15 -91 -41 -91 -16 0 -79 70 -73
80 4 6 1 10 -4 10 -6 0 -11 -6 -12 -12 0 -7 -4 -4 -8 7 -5 11 -4 25 0 31 6 7
5 14 -4 17 -9 3 -13 21 -12 53 1 27 -2 61 -6 75 -4 15 -3 31 3 37 6 6 11 49
12 96 0 47 5 86 10 86 4 0 6 8 4 18 -3 10 1 27 8 37 8 10 14 31 14 47 0 15 5
28 10 28 6 0 10 8 10 19 0 10 7 24 15 31 8 7 15 19 15 26 0 8 4 14 8 14 5 0
17 18 27 39 11 26 22 38 31 34 18 -7 18 2 -2 32 -13 21 -14 25 -2 25 8 0 19
-5 26 -12z m-2493 -74 c14 -9 25 -23 25 -31 0 -18 -37 -100 -49 -107 -5 -4 0
12 11 35 22 46 19 59 -8 32 -17 -17 -17 -17 -11 17 7 34 7 35 -9 12 -19 -27
-36 -82 -25 -82 4 0 8 -6 8 -12 0 -7 2 -20 4 -28 3 -11 -7 -15 -47 -17 -59 -2
-65 1 -81 46 -11 29 -9 39 10 77 12 24 28 44 35 44 6 0 12 6 12 13 0 20 94 21
125 1z m140 -96 c24 -11 95 -98 95 -116 0 -9 85 -92 94 -92 3 0 14 -7 23 -15
10 -8 36 -27 58 -43 22 -16 46 -41 53 -55 6 -15 17 -38 23 -51 14 -30 7 -91
-17 -145 -14 -33 -23 -41 -43 -41 -24 0 -67 19 -46 20 6 0 2 5 -7 11 -10 5
-18 19 -18 29 0 30 -34 58 -84 71 -34 8 -43 15 -39 27 5 11 3 13 -8 6 -8 -4
-21 -9 -29 -9 -8 0 -14 -5 -13 -12 2 -7 -3 -10 -11 -7 -7 3 -16 -2 -19 -10 -4
-9 -13 -16 -21 -16 -8 0 -27 -20 -43 -45 -15 -24 -33 -44 -39 -45 -6 0 -10
-19 -9 -50 2 -27 -1 -50 -6 -50 -13 0 -82 34 -101 50 -10 8 -18 20 -18 28 0 7
-4 11 -10 7 -11 -7 -51 25 -44 37 3 4 -1 5 -9 2 -10 -3 -20 6 -28 25 -8 17
-17 31 -21 31 -5 0 -8 7 -8 16 0 8 -11 35 -25 60 -13 24 -20 44 -15 44 6 0 10
-3 10 -7 0 -14 60 -76 61 -64 1 6 3 14 4 19 1 4 6 22 10 40 4 18 12 35 16 38
5 3 9 12 9 20 0 13 35 70 51 84 3 3 25 34 49 70 71 105 110 146 142 149 4 1
19 -4 33 -11z m1105 -8 c0 -5 -2 -10 -4 -10 -3 0 -8 5 -11 10 -3 6 -1 10 4 10
6 0 11 -4 11 -10z m-70 -134 c0 -3 -4 -8 -10 -11 -5 -3 -10 -1 -10 4 0 6 5 11
10 11 6 0 10 -2 10 -4z m70 -12 c0 -2 -7 -4 -15 -4 -8 0 -15 4 -15 10 0 5 7 7
15 4 8 -4 15 -8 15 -10z m155 -474 c3 -5 -1 -10 -10 -10 -9 0 -13 5 -10 10 3
6 8 10 10 10 2 0 7 -4 10 -10z m255 -10 c13 -8 13 -10 -2 -10 -9 0 -20 5 -23
10 -8 13 5 13 25 0z m-356 -35 c3 -8 1 -15 -4 -15 -6 0 -10 7 -10 15 0 8 2 15
4 15 2 0 6 -7 10 -15z m1306 -55 c0 -5 -4 -10 -10 -10 -5 0 -10 5 -10 10 0 6
5 10 10 10 6 0 10 -4 10 -10z m-163 -26 c-3 -3 -12 -4 -19 -1 -8 3 -5 6 6 6
11 1 17 -2 13 -5z m23 -35 c0 -5 -7 -9 -15 -9 -15 0 -20 12 -9 23 8 8 24 -1
24 -14z m15 -39 c-3 -5 -11 -10 -16 -10 -6 0 -7 5 -4 10 3 6 11 10 16 10 6 0
7 -4 4 -10z m-1435 -84 c0 -2 -7 -7 -16 -10 -8 -3 -12 -2 -9 4 6 10 25 14 25
6z m-730 -56 c0 -5 -4 -10 -10 -10 -5 0 -10 5 -10 10 0 6 5 10 10 10 6 0 10
-4 10 -10z m-95 -10 c-8 -12 -3 -12 28 -1 30 12 49 -15 41 -58 -8 -36 -25 -44
-125 -56 -36 -5 -48 -3 -52 9 -4 9 -14 12 -26 9 -44 -11 -18 16 42 45 35 17
70 38 77 47 14 17 25 21 15 5z m185 -40 c0 -5 -6 -10 -14 -10 -8 0 -18 5 -21
10 -3 6 3 10 14 10 12 0 21 -4 21 -10z m757 -26 c-3 -3 -12 -4 -19 -1 -8 3 -5
6 6 6 11 1 17 -2 13 -5z m-1142 -59 c-2 -5 -6 -22 -9 -36 -6 -28 -46 -48 -46
-23 0 8 6 14 13 14 8 0 7 4 -3 10 -12 7 -12 10 -1 10 7 0 11 6 7 15 -3 8 0 14
6 12 6 -1 13 4 15 11 3 6 0 12 -7 12 -6 0 -8 5 -5 11 8 12 34 -19 30 -36z m75
5 c0 -5 -5 -10 -11 -10 -5 0 -7 5 -4 10 3 6 8 10 11 10 2 0 4 -4 4 -10z m1000
0 c0 -5 -4 -10 -10 -10 -5 0 -10 5 -10 10 0 6 5 10 10 10 6 0 10 -4 10 -10z
m1220 -55 c0 -9 7 -18 15 -21 24 -10 17 -24 -12 -25 -25 -2 -25 -2 -5 -6 19
-4 21 -7 11 -19 -13 -16 -34 -19 -24 -4 3 6 -1 10 -9 10 -9 0 -16 5 -16 10 0
6 -5 10 -11 10 -5 0 -7 -4 -4 -10 3 -5 0 -10 -8 -10 -16 0 -19 32 -3 42 6 4
22 8 35 8 20 0 21 2 11 15 -10 12 -10 15 4 15 9 0 16 -7 16 -15z m-1835 -19
c119 -16 208 -43 213 -66 2 -8 10 -21 19 -27 10 -8 12 -13 5 -13 -7 0 -12 -11
-12 -24 0 -29 -55 -90 -74 -83 -8 3 -17 -1 -20 -9 -5 -13 -10 -13 -37 1 -29
16 -31 15 -36 -5 -4 -16 -8 -18 -14 -8 -7 10 -9 9 -9 -4 0 -20 -2 -21 -24 -12
-9 3 -16 12 -16 20 0 8 -6 14 -12 14 -9 0 -8 3 2 10 12 7 11 10 -5 16 -11 4
-27 16 -36 26 -9 10 -21 18 -28 18 -6 0 -11 5 -11 11 0 6 -7 9 -15 6 -8 -4
-17 -2 -20 3 -3 5 -18 7 -33 6 -15 -2 -37 3 -49 12 -13 8 -23 10 -23 5 0 -5
-15 -9 -32 -10 -85 -2 -85 -2 -65 -17 16 -13 15 -14 -14 -18 -20 -3 -33 0 -36
9 -3 7 -11 13 -19 13 -8 0 -14 4 -14 9 0 4 -18 7 -40 6 -37 -2 -40 0 -34 19
13 40 36 50 146 65 37 5 79 15 95 23 40 19 121 21 248 4z m-450 -136 c-3 -5
-10 -10 -16 -10 -5 0 -9 5 -9 10 0 6 7 10 16 10 8 0 12 -4 9 -10z m315 -20 c0
-5 -2 -10 -4 -10 -3 0 -8 5 -11 10 -3 6 -1 10 4 10 6 0 11 -4 11 -10z m2364
-618 c3 -5 -1 -9 -9 -9 -8 0 -15 4 -15 9 0 4 4 8 9 8 6 0 12 -4 15 -8z m-34
-63 c0 -18 -2 -19 -15 -5 -8 8 -15 17 -15 20 0 3 7 6 15 6 9 0 15 -9 15 -21z
m-20 -49 c0 -5 -5 -10 -11 -10 -5 0 -7 5 -4 10 3 6 8 10 11 10 2 0 4 -4 4 -10z
m-330 -40 c13 -8 11 -11 -7 -16 -13 -4 -20 -10 -17 -15 3 -5 1 -9 -5 -9 -5 0
-16 -6 -23 -12 -37 -36 -48 -41 -48 -24 0 9 6 15 13 14 6 -2 11 5 9 15 -2 9 2
17 8 17 5 0 10 6 10 14 0 23 35 32 60 16z m7 -166 c-3 -3 -12 -4 -19 -1 -8 3
-5 6 6 6 11 1 17 -2 13 -5z m-273 -53 c-8 -9 -22 12 -17 26 6 15 7 14 13 -3 4
-10 6 -21 4 -23z m51 9 c3 -5 1 -10 -4 -10 -6 0 -11 5 -11 10 0 6 2 10 4 10 3
0 8 -4 11 -10z m185 6 c0 -3 -4 -8 -10 -11 -5 -3 -10 -1 -10 4 0 6 5 11 10 11
6 0 10 -2 10 -4z m-250 -46 c0 -5 -6 -7 -13 -4 -7 2 -19 -7 -27 -21 -13 -25
-30 -34 -30 -15 0 6 5 10 10 10 6 0 10 6 10 14 0 14 14 24 38 25 6 1 12 -3 12
-9z m-75 -70 c-3 -5 -12 -7 -20 -3 -21 7 -19 13 6 13 11 0 18 -4 14 -10z m160
-220 c3 -5 1 -10 -4 -10 -6 0 -11 5 -11 10 0 6 2 10 4 10 3 0 8 -4 11 -10z
m-1285 -190 c0 -5 -2 -10 -4 -10 -3 0 -8 5 -11 10 -3 6 -1 10 4 10 6 0 11 -4
11 -10z m50 -37 c0 -7 -7 -10 -15 -7 -8 4 -15 1 -15 -5 0 -6 6 -11 13 -12 10
0 10 -2 0 -6 -7 -2 -13 -14 -13 -24 0 -11 -4 -17 -10 -14 -10 6 -14 -7 -11
-32 1 -7 -3 -13 -9 -13 -5 0 -10 -7 -10 -15 0 -8 -4 -15 -10 -15 -5 0 -10 -9
-10 -19 0 -10 -7 -21 -15 -25 -8 -3 -15 -12 -15 -21 0 -8 -4 -15 -10 -15 -5 0
-10 -7 -10 -15 0 -8 -5 -15 -11 -15 -14 0 -48 -41 -49 -57 0 -7 -4 -13 -10
-13 -5 0 -10 -7 -10 -15 0 -8 -11 -17 -25 -21 -29 -7 -34 -24 -7 -25 10 0 6
-5 -11 -11 -17 -6 -26 -15 -23 -23 2 -7 -4 -15 -16 -18 -11 -3 -17 -10 -13
-16 3 -6 2 -11 -4 -11 -5 0 -13 5 -16 10 -3 6 -14 10 -23 9 -14 0 -15 -1 -2
-7 24 -11 14 -46 -26 -90 -28 -29 -30 -19 -8 33 9 21 14 49 11 62 -2 13 0 23
4 23 5 0 9 8 9 18 0 9 9 28 20 42 11 14 20 30 20 36 0 7 7 15 16 18 8 3 12 10
9 16 -4 6 5 10 19 10 18 0 24 4 20 15 -4 8 -1 15 5 15 6 0 11 -6 11 -12 0 -7
8 -1 17 12 10 14 18 29 18 33 0 4 5 11 11 15 5 4 16 22 23 40 8 18 21 37 30
42 10 6 11 10 4 10 -27 0 -13 30 15 30 21 0 24 2 12 10 -12 8 -10 10 9 10 17
0 22 4 17 16 -6 15 -4 15 11 3 15 -12 16 -12 10 4 -5 13 -1 17 15 17 16 0 18
3 9 13 -6 8 -8 16 -5 19 10 11 54 3 54 -9z m130 -184 c0 -6 -4 -7 -10 -4 -5 3
-10 11 -10 16 0 6 5 7 10 4 6 -3 10 -11 10 -16z m294 -48 c-7 -8 -35 9 -29 19
4 6 11 5 20 -3 7 -6 11 -14 9 -16z m-659 -1 c3 -5 1 -10 -4 -10 -6 0 -11 5
-11 10 0 6 2 10 4 10 3 0 8 -4 11 -10z m655 -160 c0 -5 -2 -10 -4 -10 -3 0 -8
5 -11 10 -3 6 -1 10 4 10 6 0 11 -4 11 -10z"/>
<path d="M1590 3983 c-14 -3 -29 -9 -34 -14 -6 -5 -18 -9 -28 -9 -10 0 -41
-11 -68 -25 -27 -14 -56 -25 -64 -25 -24 0 -60 -106 -59 -174 2 -66 19 -116
40 -116 8 0 12 4 9 9 -3 5 1 14 8 20 8 7 17 31 21 54 3 23 13 74 21 114 14 65
19 73 49 87 47 23 52 21 76 -25 22 -45 16 -44 119 -15 30 8 56 20 58 26 2 5 9
10 17 10 7 0 13 11 13 25 0 14 -5 25 -10 25 -5 0 -6 5 -3 10 14 23 -86 37
-165 23z"/>
<path d="M2295 3970 c-3 -5 -1 -10 4 -10 6 0 11 5 11 10 0 6 -2 10 -4 10 -3 0
-8 -4 -11 -10z"/>
<path d="M2418 3883 c7 -3 16 -2 19 1 4 3 -2 6 -13 5 -11 0 -14 -3 -6 -6z"/>
<path d="M1450 3220 c-8 -5 -12 -11 -9 -14 3 -3 14 1 25 9 21 16 8 20 -16 5z"/>
<path d="M1399 3014 c-21 -25 -3 -35 19 -11 17 18 19 24 7 24 -8 0 -20 -6 -26
-13z"/>
<path d="M1415 2970 c-3 -5 3 -10 15 -10 12 0 18 5 15 10 -3 6 -10 10 -15 10
-5 0 -12 -4 -15 -10z"/>
<path d="M1610 2889 c0 -5 5 -7 10 -4 6 3 10 8 10 11 0 2 -4 4 -10 4 -5 0 -10
-5 -10 -11z"/>
<path d="M1570 2870 c0 -5 5 -10 11 -10 5 0 7 5 4 10 -3 6 -8 10 -11 10 -2 0
-4 -4 -4 -10z"/>
<path d="M1632 2863 c-20 -8 6 -33 35 -33 19 0 24 4 19 16 -3 9 -6 18 -6 20 0
5 -32 4 -48 -3z m42 -11 c2 -4 -4 -9 -15 -9 -10 -1 -19 2 -19 8 0 11 27 12 34
1z"/>
<path d="M1791 2504 c0 -11 3 -14 6 -6 3 7 2 16 -1 19 -3 4 -6 -2 -5 -13z"/>
<path d="M3196 3495 c-3 -8 -1 -15 4 -15 5 0 9 -15 8 -32 -1 -18 -1 -50 0 -70
2 -33 5 -37 24 -35 29 3 56 34 53 61 -1 12 -3 31 -4 44 -1 14 -13 30 -33 42
-40 24 -44 24 -52 5z"/>
<path d="M3168 3433 c7 -3 16 -2 19 1 4 3 -2 6 -13 5 -11 0 -14 -3 -6 -6z"/>
<path d="M3331 3424 c0 -11 3 -14 6 -6 3 7 2 16 -1 19 -3 4 -6 -2 -5 -13z"/>
<path d="M1064 4797 c6 -19 -17 -51 -28 -40 -3 4 -6 -3 -6 -14 0 -12 -6 -23
-12 -26 -10 -3 -10 -8 -2 -16 8 -9 17 -3 35 24 13 19 27 35 32 35 12 0 8 15
-9 36 -14 17 -15 17 -10 1z"/>
<path d="M1140 4730 c0 -5 5 -10 11 -10 5 0 7 5 4 10 -3 6 -8 10 -11 10 -2 0
-4 -4 -4 -10z"/>
<path d="M1864 4710 c1 -25 3 -27 15 -15 12 12 12 16 -1 29 -13 13 -15 11 -14
-14z"/>
<path d="M995 4670 c4 -6 11 -8 16 -5 14 9 11 15 -7 15 -8 0 -12 -5 -9 -10z"/>
<path d="M1830 4571 c0 -5 5 -13 10 -16 6 -3 10 -2 10 4 0 5 -4 13 -10 16 -5
3 -10 2 -10 -4z"/>
<path d="M875 4450 c-3 -5 -1 -10 4 -10 6 0 11 5 11 10 0 6 -2 10 -4 10 -3 0
-8 -4 -11 -10z"/>
<path d="M3630 3259 c0 -9 -9 -19 -20 -22 -23 -6 -27 -35 -6 -43 11 -4 13 -12
5 -30 -5 -15 -5 -23 0 -19 5 3 11 -3 13 -12 2 -11 11 3 22 34 16 47 16 55 2
80 -10 18 -15 22 -16 12z"/>
<path d="M3457 3078 c4 -13 12 -32 20 -43 14 -19 14 -18 12 10 -3 31 -16 55
-29 55 -5 0 -6 -10 -3 -22z"/>
<path d="M4100 2300 c0 -5 5 -10 10 -10 6 0 10 5 10 10 0 6 -4 10 -10 10 -5 0
-10 -4 -10 -10z"/>
<path d="M4300 1787 c-8 -12 -15 -27 -15 -34 0 -20 -49 -92 -63 -93 -7 0 -10
-5 -6 -11 4 -6 -1 -10 -12 -8 -27 3 -54 -11 -54 -28 0 -7 -7 -13 -16 -11 -10
2 -19 -3 -21 -9 -3 -7 3 -13 12 -13 24 0 9 -17 -22 -25 -16 -3 -35 -13 -45
-22 -9 -8 -22 -16 -30 -17 -7 -1 -44 -17 -81 -35 -71 -34 -105 -74 -78 -90 10
-7 8 -12 -7 -22 -10 -8 -19 -17 -18 -21 0 -4 -16 -20 -36 -35 -38 -28 -94
-123 -79 -133 4 -3 10 -13 14 -22 3 -10 15 -18 26 -18 27 0 38 -38 15 -54 -16
-12 -16 -13 2 -18 14 -4 20 -15 21 -39 1 -19 -1 -28 -3 -21 -8 17 -27 15 -20
-3 3 -8 1 -15 -4 -15 -6 0 -10 -9 -10 -21 0 -13 -4 -18 -12 -13 -8 5 -9 0 -5
-15 3 -13 -1 -41 -9 -63 -17 -48 -17 -51 -4 -43 6 3 10 -2 10 -12 0 -15 4 -14
20 7 21 27 24 26 34 -10 6 -18 5 -21 -3 -10 -9 12 -11 12 -16 -2 -4 -10 -4
-22 0 -28 3 -5 2 -10 -3 -10 -6 0 -12 6 -15 14 -3 8 -16 20 -28 26 -15 8 -19
9 -15 1 4 -6 0 -11 -8 -11 -18 0 -21 -16 -6 -25 6 -4 8 -11 5 -16 -4 -5 -2 -9
3 -9 19 0 23 -33 6 -43 -11 -6 -13 -12 -5 -16 6 -4 13 -23 17 -41 4 -23 2 -30
-4 -22 -14 21 -74 -17 -67 -43 2 -11 5 -30 5 -42 0 -15 5 -21 14 -17 8 3 12
12 10 19 -3 7 -1 16 5 20 6 3 11 -1 11 -9 0 -9 5 -16 10 -16 6 0 10 4 10 10 0
5 10 14 22 21 18 10 20 9 15 -5 -12 -30 11 -16 26 17 9 18 25 41 37 52 11 10
20 24 20 31 0 7 3 14 8 16 4 2 18 24 31 50 13 27 28 48 33 48 4 0 8 9 8 20 0
11 5 20 10 20 6 0 10 7 10 16 0 8 14 35 30 59 17 24 30 46 30 50 0 4 12 25 28
48 46 71 43 66 133 237 18 36 36 67 39 70 12 12 30 51 30 65 0 8 5 15 10 15 6
0 10 5 10 12 0 6 12 27 26 46 21 26 24 36 14 42 -11 7 -10 12 3 25 10 9 17 19
17 23 0 4 16 24 35 45 21 23 29 37 19 37 -7 0 -14 7 -14 16 0 10 -6 14 -15 10
-8 -3 -15 -1 -15 4 0 5 -7 16 -16 25 -13 12 -14 19 -4 30 10 12 10 15 -1 15
-12 0 -12 2 0 9 7 5 11 13 7 19 -3 6 -2 13 4 17 9 6 9 39 -1 49 -3 3 -11 -5
-19 -17z"/>
<path d="M4423 1456 c3 -8 -3 -31 -14 -52 -21 -42 -24 -64 -9 -64 6 0 10 7 10
15 0 9 6 28 14 43 26 51 29 72 11 72 -11 0 -15 -5 -12 -14z"/>
<path d="M4353 1294 c-7 -3 -9 -12 -6 -20 3 -8 -1 -14 -10 -14 -11 0 -13 -7
-10 -22 3 -13 2 -20 -2 -16 -4 4 -14 0 -21 -10 -9 -13 -9 -19 -1 -24 9 -6 9
-8 0 -8 -7 0 -13 -6 -13 -12 0 -7 -7 -26 -15 -42 -21 -40 -12 -44 14 -7 15 20
27 28 39 25 13 -5 14 -4 3 4 -11 8 -10 16 4 45 9 20 23 41 31 48 8 6 14 22 14
35 0 24 -4 27 -27 18z"/>
<path d="M4377 1168 c-7 -53 -2 -67 24 -72 16 -2 82 -36 89 -45 3 -4 17 -12
33 -18 15 -7 27 -17 27 -23 0 -5 7 -10 15 -10 8 0 15 -4 15 -9 0 -5 29 -22 65
-40 36 -17 65 -36 65 -42 0 -7 3 -9 6 -6 11 11 126 -55 171 -99 23 -22 45 -35
47 -30 3 7 5 6 5 -1 1 -20 18 -15 24 7 3 11 12 20 20 20 12 0 15 12 15 55 -1
44 -4 56 -19 60 -10 4 -23 4 -28 0 -5 -3 -13 0 -17 6 -4 8 -3 9 4 5 7 -4 12
-4 12 1 0 4 -27 21 -59 36 -33 15 -65 34 -71 42 -7 8 -25 15 -41 15 -19 0 -29
5 -29 15 0 15 -15 18 -85 18 -21 0 -24 1 -7 4 12 2 22 8 22 12 0 4 -37 26 -82
50 -46 24 -91 50 -100 59 -10 8 -18 12 -18 8 0 -5 -16 1 -36 13 -53 31 -60 28
-67 -31z m383 -168 c0 -5 -4 -10 -10 -10 -5 0 -10 5 -10 10 0 6 5 10 10 10 6
0 10 -4 10 -10z m30 -4 c0 -3 -4 -8 -10 -11 -5 -3 -10 -1 -10 4 0 6 5 11 10
11 6 0 10 -2 10 -4z m60 -36 c0 -5 -7 -10 -15 -10 -8 0 -15 5 -15 10 0 6 7 10
15 10 8 0 15 -4 15 -10z m35 -40 c3 -5 2 -10 -4 -10 -5 0 -13 5 -16 10 -3 6
-2 10 4 10 5 0 13 -4 16 -10z m72 -46 c-7 -7 -37 7 -37 17 0 6 9 5 21 -1 11
-7 19 -14 16 -16z"/>
<path d="M501 894 c0 -11 3 -14 6 -6 3 7 2 16 -1 19 -3 4 -6 -2 -5 -13z"/>
<path d="M4130 799 c0 -5 5 -7 10 -4 6 3 10 8 10 11 0 2 -4 4 -10 4 -5 0 -10
-5 -10 -11z"/>
<path d="M3680 700 c0 -5 5 -10 11 -10 5 0 7 5 4 10 -3 6 -8 10 -11 10 -2 0
-4 -4 -4 -10z"/>
<path d="M4004 561 c3 -5 -1 -11 -9 -15 -8 -3 -15 -15 -15 -27 0 -12 -8 -23
-19 -26 -21 -5 -33 -46 -32 -108 0 -22 -3 -47 -6 -55 -3 -8 -5 -25 -4 -37 1
-13 -2 -23 -8 -23 -6 0 -10 -3 -10 -7 4 -18 -15 -74 -27 -84 -8 -6 -11 -16 -8
-21 4 -6 0 -14 -7 -19 -12 -7 -12 -9 0 -9 11 0 10 -5 -3 -25 -9 -13 -16 -31
-16 -40 0 -9 -12 -18 -30 -22 -17 -3 -35 -14 -41 -24 -9 -18 0 -19 286 -19
l295 0 0 24 c0 13 -6 29 -14 35 -17 14 -27 59 -15 67 5 3 9 1 9 -5 0 -6 14 -9
33 -7 17 2 35 -1 39 -7 5 -8 13 -6 26 6 10 9 23 17 28 17 5 0 4 -4 -2 -8 -6
-4 -15 -18 -19 -32 l-7 -25 17 23 c13 18 23 22 41 18 17 -5 24 -2 24 8 0 8 -6
17 -12 19 -7 3 -8 6 -3 6 25 2 37 -16 26 -37 -7 -14 -8 -23 -1 -27 5 -3 10 2
10 11 0 15 3 15 20 -4 23 -25 42 -29 34 -8 -3 8 4 24 15 35 16 16 21 17 21 6
0 -8 5 -15 10 -15 6 0 10 8 10 18 0 14 2 15 10 2 18 -29 18 -4 -1 34 -14 29
-16 43 -8 52 6 7 8 18 5 23 -4 5 1 14 11 19 13 8 15 13 5 24 -9 11 -8 19 3 36
14 19 14 22 -2 31 -17 10 -16 11 4 17 12 3 19 12 17 19 -3 7 -1 16 5 20 14 8
14 45 1 45 -5 0 -10 -7 -10 -15 0 -9 -6 -12 -15 -9 -8 4 -17 -1 -21 -10 -3 -9
-10 -16 -16 -16 -12 0 -32 -20 -47 -48 -6 -12 -17 -21 -24 -19 -7 1 -11 -5
-10 -13 2 -10 -10 -19 -32 -26 -22 -7 -32 -7 -28 -1 4 6 0 8 -8 5 -10 -4 -14
4 -16 28 -1 22 3 34 12 34 7 0 16 7 19 16 10 27 7 29 -14 7 -16 -18 -25 -20
-50 -13 -17 5 -37 7 -44 4 -7 -3 -19 2 -26 11 -11 14 -11 20 -1 37 7 11 10 22
7 25 -3 4 2 12 12 19 9 7 12 14 5 14 -6 0 -18 -7 -27 -15 -8 -8 -21 -15 -30
-15 -8 0 -16 -10 -18 -22 l-3 -23 -22 24 c-19 20 -25 22 -38 11 -12 -10 -22
-9 -54 7 -50 25 -92 61 -110 95 -12 24 -37 38 -69 38 -7 0 -11 -4 -8 -9z m154
-259 c9 -6 6 -12 -13 -22 -28 -15 -41 -9 -32 15 7 16 25 19 45 7z m400 -183
c-3 -8 -7 -3 -11 10 -4 17 -3 21 5 13 5 -5 8 -16 6 -23z"/>
<path d="M1735 530 c3 -5 8 -10 11 -10 2 0 4 5 4 10 0 6 -5 10 -11 10 -5 0 -7
-4 -4 -10z"/>
<path d="M2035 530 c3 -5 8 -10 11 -10 2 0 4 5 4 10 0 6 -5 10 -11 10 -5 0 -7
-4 -4 -10z"/>
<path d="M4970 506 c0 -9 7 -16 16 -16 17 0 14 22 -4 28 -7 2 -12 -3 -12 -12z"/>
<path d="M4700 465 c0 -8 4 -15 9 -15 5 0 11 7 15 15 3 9 0 15 -9 15 -8 0 -15
-7 -15 -15z"/>
<path d="M4979 465 c-1 -3 -2 -8 -3 -12 -4 -24 -35 -53 -50 -47 -9 3 -16 1
-16 -5 0 -6 5 -11 11 -11 6 0 9 -5 7 -11 -2 -6 -7 -10 -12 -9 -4 1 -16 -9 -27
-21 l-19 -22 0 22 c0 12 -4 19 -10 16 -6 -4 -8 -10 -5 -15 3 -5 -2 -13 -11
-18 -11 -6 -15 -16 -11 -26 5 -11 3 -15 -5 -10 -8 5 -9 2 -5 -10 4 -10 1 -19
-9 -23 -12 -4 -13 -8 -3 -14 10 -6 10 -11 1 -21 -9 -11 -9 -17 1 -27 9 -10 8
-12 -7 -9 -14 2 -21 -5 -28 -27 -10 -32 -25 -70 -38 -95 -4 -8 -14 -15 -22
-14 -7 1 -21 -10 -31 -22 -15 -21 -16 -24 -2 -24 8 0 14 5 13 11 -2 6 3 14 11
16 9 4 11 0 6 -16 -7 -22 -6 -22 138 -20 l145 1 1 234 c1 156 -2 234 -9 234
-5 0 -11 -2 -11 -5z"/>
<path d="M2510 440 c0 -5 5 -10 10 -10 6 0 10 5 10 10 0 6 -4 10 -10 10 -5 0
-10 -4 -10 -10z"/>
<path d="M2542 429 c-12 -5 -29 -6 -37 -3 -8 4 -15 1 -15 -5 0 -6 -9 -11 -21
-11 -11 0 -17 -5 -14 -10 3 -6 -14 -28 -38 -51 -44 -39 -62 -71 -48 -84 3 -4
6 -37 6 -73 0 -70 11 -105 25 -82 5 9 9 9 14 1 4 -6 2 -11 -3 -11 -20 0 -11
-32 14 -56 14 -13 25 -28 25 -34 0 -7 133 -10 418 -9 229 0 410 3 402 6 -8 3
-18 11 -22 17 -6 8 -11 7 -17 -3 -7 -11 -13 -9 -30 8 -18 18 -59 28 -93 22 -5
0 -8 4 -8 10 0 6 -9 8 -20 4 -11 -3 -20 -2 -20 2 0 5 -16 9 -35 10 -40 1 -66
18 -59 38 4 10 0 12 -15 8 -12 -3 -21 -1 -21 6 0 6 -5 11 -11 11 -6 0 -27 16
-47 35 -20 20 -49 43 -64 53 -16 9 -28 20 -28 24 0 14 -62 68 -71 62 -5 -3 -8
5 -6 18 2 20 -3 23 -32 26 -25 3 -31 6 -20 12 11 8 9 13 -10 31 -19 18 -27 20
-42 11 -25 -16 -34 -15 -20 2 15 18 -5 27 -37 15z"/>
<path d="M4930 430 c0 -5 5 -10 11 -10 5 0 7 5 4 10 -3 6 -8 10 -11 10 -2 0
-4 -4 -4 -10z"/>
<path d="M4730 420 c0 -5 5 -10 11 -10 5 0 7 5 4 10 -3 6 -8 10 -11 10 -2 0
-4 -4 -4 -10z"/>
<path d="M1973 295 c-3 -9 -3 -18 0 -21 9 -9 27 6 27 22 0 19 -19 18 -27 -1z"/>
<path d="M1950 250 c0 -5 5 -10 10 -10 6 0 10 -10 10 -22 0 -16 3 -19 11 -11
8 8 8 17 0 32 -12 22 -31 29 -31 11z"/>
<path d="M1965 180 c44 -11 65 -11 65 0 0 6 -21 9 -47 9 -43 -1 -45 -2 -18 -9z"/>
<path d="M4380 96 c0 -9 5 -16 10 -16 6 0 10 4 10 9 0 6 -4 13 -10 16 -5 3
-10 -1 -10 -9z"/>
<path d="M4460 80 c0 -5 5 -10 10 -10 6 0 10 5 10 10 0 6 -4 10 -10 10 -5 0
-10 -4 -10 -10z"/>
<path d="M4620 50 c0 -5 7 -10 16 -10 8 0 12 5 9 10 -3 6 -10 10 -16 10 -5 0
-9 -4 -9 -10z"/>
</g>
</svg>
